<?xml version="1.0" standalone="no"?>
<!DOCTYPE svg PUBLIC "-//W3C//DTD SVG 20010904//EN"
 "http://www.w3.org/TR/2001/REC-SVG-20010904/DTD/svg10.dtd">
<svg version="1.0" xmlns="http://www.w3.org/2000/svg"
 width="300.000000pt" height="330.000000pt" viewBox="0 0 300.000000 330.000000"
 preserveAspectRatio="xMidYMid meet">
<metadata>
Created by potrace 1.10, written by Peter Selinger 2001-2011
</metadata>
<g transform="translate(0.000000,330.000000) scale(0.100000,-0.100000)"
fill="#000000" stroke="none">
<path d="M2645 3196 c-115 -34 -216 -64 -224 -67 -12 -4 -12 -11 -3 -37 11
-31 10 -32 -29 -43 l-39 -12 0 -113 c0 -127 -8 -115 94 -133 89 -16 86 -17 66
37 -36 97 -40 89 44 113 l75 22 74 96 c41 53 94 120 117 149 23 28 40 51 38
51 -1 -1 -97 -29 -213 -63z m125 -2 c0 -14 -123 -169 -132 -166 -5 1 -7 -2 -4
-7 8 -12 -42 -51 -65 -51 -24 0 -102 -31 -111 -43 -3 -6 -2 -22 3 -35 6 -14 7
-32 4 -40 -3 -8 3 -21 12 -28 16 -12 16 -13 -9 -14 -16 0 -28 5 -28 11 0 6 -8
8 -19 4 -10 -3 -26 -2 -35 1 -14 6 -16 14 -10 43 4 20 6 60 5 89 -2 46 1 53
21 61 15 5 26 5 30 -3 7 -10 8 -1 9 67 0 15 4 28 9 28 20 3 27 5 95 27 164 53
225 68 225 56z"/>
<path d="M2402 2975 c0 -16 2 -22 5 -12 2 9 2 23 0 30 -3 6 -5 -1 -5 -18z"/>
<path d="M1710 3053 c-85 -79 -299 -278 -476 -440 l-321 -295 -18 -119 -18
-119 -61 0 c-34 0 -98 -3 -143 -7 l-82 -6 -113 -181 c-62 -100 -154 -248 -205
-330 -54 -85 -85 -145 -75 -141 54 23 166 64 169 62 1 -2 -6 -30 -17 -63 -50
-161 -52 -402 -6 -572 161 -583 759 -923 1332 -756 429 124 724 478 775 929
18 164 -12 365 -76 511 -14 31 -22 61 -18 68 4 6 67 91 139 188 l133 177 41
228 c22 125 43 235 45 243 7 23 -186 119 -245 122 -36 2 -46 7 -48 23 -2 11
-29 46 -60 78 -61 62 -62 68 -7 36 40 -24 40 -24 70 29 l21 37 -50 25 -50 25
-36 108 -36 109 -23 -50 -23 -50 22 -68 c13 -38 29 -81 37 -96 25 -50 -1 -29
-67 55 -36 45 -74 89 -85 98 -11 9 -74 78 -140 153 -66 75 -122 136 -125 135
-3 0 -75 -66 -160 -146z m265 -5 c55 -61 116 -131 136 -154 20 -24 39 -41 42
-38 3 3 12 -7 20 -23 18 -33 92 -113 106 -113 5 0 21 -20 35 -44 14 -24 40
-56 58 -71 31 -26 31 -28 13 -41 -18 -13 -18 -14 4 -14 13 0 29 -7 35 -15 7
-9 29 -16 56 -16 31 -1 69 -14 123 -43 l79 -41 -5 -40 c-9 -70 -17 -118 -33
-200 -9 -44 -17 -89 -18 -100 -8 -72 -22 -123 -45 -155 -22 -31 -165 -223
-189 -255 -4 -5 -20 -27 -36 -47 -24 -32 -32 -37 -55 -32 -14 4 -30 9 -36 13
-5 3 -12 6 -15 7 -25 5 -79 22 -152 50 -90 34 -188 57 -188 44 0 -5 -18 -7
-41 -6 -46 3 -89 -24 -89 -54 0 -11 -7 -23 -16 -28 -9 -5 -16 -13 -16 -18 0
-5 -4 -8 -10 -6 -5 1 -7 -2 -3 -8 3 -5 -1 -13 -10 -16 -30 -12 -27 5 7 38 19
18 38 41 41 51 7 18 6 18 -16 0 -27 -21 -87 -88 -87 -97 0 -3 9 -6 19 -6 20 0
36 -25 32 -50 -2 -12 0 -12 10 -3 8 8 18 9 29 3 9 -5 22 -5 31 1 8 5 9 9 2 9
-6 0 -19 7 -27 16 -9 8 -16 11 -16 5 0 -6 -4 -11 -10 -11 -5 0 -10 5 -10 12 0
17 30 47 43 42 7 -2 26 7 42 21 18 15 23 22 11 18 -18 -6 -18 -5 -1 23 l17 29
-20 -25 c-11 -13 -19 -27 -16 -31 5 -9 -25 -34 -32 -26 -3 2 5 25 18 51 l23
45 72 1 c61 0 99 -9 240 -55 l168 -55 29 -67 c15 -37 40 -110 54 -163 21 -82
25 -116 25 -245 0 -130 -3 -163 -26 -247 -99 -372 -374 -647 -745 -745 -84
-22 -118 -26 -247 -26 -130 0 -163 4 -250 27 -185 48 -336 135 -471 270 -135
135 -222 287 -271 474 -22 82 -26 119 -26 242 -1 145 13 234 56 354 l13 38
203 74 c187 67 206 72 234 61 25 -11 70 -7 281 20 196 26 285 33 406 32 85 -1
164 3 174 7 14 5 17 4 12 -5 -6 -10 -3 -9 12 0 39 25 48 24 -293 15 -88 -2
-171 -6 -185 -10 -13 -3 -85 -13 -160 -21 -74 -8 -153 -17 -175 -20 -29 -4
-36 -2 -25 5 10 7 0 8 -35 4 -49 -6 -194 -52 -365 -114 -113 -42 -224 -79
-227 -76 -2 2 116 74 261 161 l264 159 16 85 c9 48 21 109 27 137 7 36 16 53
28 57 14 3 20 23 30 95 7 50 14 99 16 109 2 10 4 21 4 25 1 4 7 13 15 20 14
13 155 143 215 196 19 17 39 28 44 25 6 -3 7 -1 4 4 -6 9 156 168 229 226 16
12 41 36 57 54 16 18 37 35 48 38 10 4 19 12 19 20 0 7 4 15 9 17 9 3 48 38
224 200 34 32 64 58 67 58 4 0 51 -50 105 -112z m302 -114 c-3 -4 0 -22 9 -42
8 -19 12 -37 10 -39 -5 -5 21 -39 48 -62 59 -50 62 -56 47 -80 -8 -12 -12 -12
-25 -2 -9 7 -27 11 -40 9 -22 -4 -24 -2 -21 24 2 16 -7 61 -21 100 -27 80 -29
98 -12 98 6 0 9 -3 5 -6z m-1432 -930 c-3 -25 -8 -53 -10 -62 -25 -132 -28
-142 -46 -147 -11 -4 -19 -11 -19 -16 0 -5 -6 -9 -14 -9 -7 0 -26 -10 -42 -22
-15 -13 -24 -16 -19 -8 4 8 -5 3 -21 -11 -16 -14 -54 -40 -84 -58 -30 -17 -62
-36 -70 -40 -8 -5 -49 -29 -90 -52 -41 -24 -78 -47 -81 -52 -3 -5 -10 -8 -15
-8 -5 1 -16 -5 -24 -12 -44 -38 -47 -22 -7 43 103 170 193 314 202 324 6 6 16
22 23 36 10 21 41 72 69 117 9 13 41 17 167 21 l88 2 -7 -46z m1510 -479 c14
-30 27 -67 30 -82 3 -15 -6 1 -20 37 -14 35 -33 72 -42 82 -11 12 -12 18 -4
18 7 0 23 -25 36 -55z m-1949 -58 c-7 -12 -24 -65 -37 -117 -29 -118 -32 -330
-5 -448 45 -202 134 -367 276 -512 145 -149 294 -236 483 -285 51 -13 83 -24
72 -25 -37 0 -169 41 -250 79 -324 153 -541 438 -601 788 -22 128 -14 315 17
423 12 41 21 84 21 95 -1 20 16 37 30 29 4 -3 2 -15 -6 -27z m2013 -157 c0
-14 -6 -4 -14 25 -8 28 -14 57 -14 65 1 24 27 -62 28 -90z m8 -82 c-2 -13 -4
-5 -4 17 -1 22 1 32 4 23 2 -10 2 -28 0 -40z m10 -140 c-2 -24 -4 -7 -4 37 0
44 2 63 4 43 2 -21 2 -57 0 -80z m-7 -98 c-6 -37 -8 -40 -9 -13 -1 29 8 68 14
61 1 -2 -1 -23 -5 -48z m-13 -82 c-3 -7 -5 -2 -5 12 0 14 2 19 5 13 2 -7 2
-19 0 -25z m-22 -93 c-23 -76 -28 -65 -7 13 9 35 18 59 20 54 2 -6 -4 -36 -13
-67z m-54 -142 c-94 -199 -282 -397 -468 -492 -61 -31 -67 -26 -7 7 214 118
386 301 470 499 15 35 29 61 32 59 2 -3 -10 -35 -27 -73z m-561 -533 c-8 -5
-19 -10 -25 -10 -5 0 -3 5 5 10 8 5 20 10 25 10 6 0 3 -5 -5 -10z m-50 -20
c-8 -5 -22 -10 -30 -10 -13 0 -13 1 0 10 8 5 22 10 30 10 13 0 13 -1 0 -10z
m-53 -16 c-3 -3 -12 -4 -19 -1 -8 3 -5 6 6 6 11 1 17 -2 13 -5z m-84 -21 c-7
-2 -19 -2 -25 0 -7 3 -2 5 12 5 14 0 19 -2 13 -5z m-325 -10 c-10 -2 -26 -2
-35 0 -10 3 -2 5 17 5 19 0 27 -2 18 -5z m265 0 c-7 -2 -21 -2 -30 0 -10 3 -4
5 12 5 17 0 24 -2 18 -5z m-110 -10 c-23 -2 -64 -2 -90 0 -26 2 -7 3 42 3 50
0 71 -1 48 -3z"/>
<path d="M2136 2832 c-2 -4 -1 -14 5 -22 7 -12 9 -10 9 8 0 23 -5 28 -14 14z"/>
<path d="M2141 2774 c0 -11 3 -14 6 -6 3 7 2 16 -1 19 -3 4 -6 -2 -5 -13z"/>
<path d="M2140 2736 c-9 -12 -8 -27 8 -73 l20 -58 -5 70 c-3 39 -7 71 -8 73
-1 1 -8 -4 -15 -12z"/>
<path d="M2069 2719 c-85 -72 -91 -80 -84 -119 5 -32 3 -39 -19 -54 -14 -9
-28 -16 -31 -16 -3 0 -13 -7 -22 -16 -10 -8 -56 -39 -103 -69 -47 -29 -99 -65
-116 -79 -18 -14 -36 -26 -40 -26 -5 0 -29 -16 -53 -35 -24 -19 -46 -33 -48
-31 -2 2 -15 -7 -28 -20 -13 -13 -30 -24 -37 -24 -7 0 -19 -9 -26 -20 -15 -24
-20 -27 203 120 77 51 185 122 240 158 55 36 102 66 103 68 2 1 -1 18 -8 38
-11 34 -10 36 35 77 26 24 54 49 63 56 9 7 12 13 6 13 -6 0 -22 -9 -35 -21z"/>
<path d="M2058 2563 c6 -2 18 -2 25 0 6 3 1 5 -13 5 -14 0 -19 -2 -12 -5z"/>
<path d="M1414 2180 c-23 -9 -42 -30 -27 -30 4 0 19 9 33 20 27 21 26 23 -6
10z"/>
<path d="M2420 2053 c8 -3 17 -9 20 -13 3 -4 19 -10 35 -13 30 -7 30 -7 -5 13
-19 10 -42 19 -50 19 -13 -1 -13 -1 0 -6z"/>
<path d="M2300 2044 c-8 -1 -49 -6 -92 -9 -42 -4 -84 -13 -94 -20 -16 -11 -12
-12 31 -8 28 3 52 9 55 12 3 3 23 7 45 8 93 5 135 10 141 16 7 7 -56 8 -86 1z"/>
<path d="M1980 2004 c-33 -13 -33 -14 -5 -8 17 3 50 9 75 13 l45 8 -40 1 c-22
0 -56 -6 -75 -14z"/>
<path d="M1896 1981 c-11 -4 -15 -10 -10 -13 5 -4 20 0 34 8 26 14 9 18 -24 5z"/>
<path d="M1826 1961 c-11 -4 -15 -10 -10 -13 5 -2 20 1 34 8 26 14 8 18 -24 5z"/>
<path d="M1778 1943 c7 -3 16 -2 19 1 4 3 -2 6 -13 5 -11 0 -14 -3 -6 -6z"/>
<path d="M1695 1925 c-22 -7 -62 -20 -90 -28 -27 -8 -41 -15 -29 -16 21 -1
137 34 164 50 22 12 1 10 -45 -6z"/>
<path d="M1437 1850 c-32 -10 -62 -22 -65 -25 -4 -4 4 -4 17 0 13 4 29 8 35
10 6 1 18 5 26 8 8 4 25 8 37 10 26 4 44 17 22 16 -8 0 -40 -8 -72 -19z"/>
<path d="M1310 1810 c-11 -8 -7 -9 15 -4 37 8 45 14 19 14 -10 0 -26 -5 -34
-10z"/>
<path d="M1235 1784 c-22 -8 -44 -19 -50 -25 -7 -7 -2 -7 16 0 15 5 30 7 33 4
3 -4 6 -1 6 6 0 7 3 10 8 7 4 -2 16 2 27 10 24 17 12 17 -40 -2z"/>
<path d="M1070 1725 c-47 -19 -80 -34 -75 -34 10 0 83 25 135 46 14 6 28 9 33
6 4 -2 7 1 7 6 0 15 -4 14 -100 -24z"/>
<path d="M955 1680 c-16 -7 -17 -9 -3 -9 9 -1 20 4 23 9 7 11 7 11 -20 0z"/>
<path d="M1590 1671 c0 -5 5 -13 10 -16 6 -3 10 -2 10 4 0 5 -4 13 -10 16 -5
3 -10 2 -10 -4z"/>
<path d="M1620 1654 c-15 -38 -13 -48 17 -75 18 -15 22 -17 11 -4 -12 15 -15
31 -11 63 6 47 -2 55 -17 16z"/>
<path d="M1890 1633 c-11 -45 -13 -47 -26 -29 -16 23 -20 1 -4 -24 9 -13 11
-13 20 0 13 19 33 91 27 96 -2 3 -10 -17 -17 -43z"/>
<path d="M797 1606 c-36 -33 -54 -72 -82 -177 -13 -50 -30 -99 -38 -108 -18
-20 -27 -47 -33 -90 -2 -19 -9 -40 -15 -48 -8 -9 -8 -13 0 -13 26 0 8 -18 -24
-24 -28 -6 -33 -9 -23 -20 11 -11 15 -11 26 3 7 9 11 10 7 4 -3 -7 -3 -13 2
-13 21 1 31 20 41 78 6 35 24 91 40 125 16 34 34 84 41 111 14 56 43 117 79
164 28 37 16 43 -21 8z"/>
<path d="M942 1587 c-31 -33 -27 -45 5 -13 14 14 24 28 21 31 -2 3 -14 -5 -26
-18z"/>
<path d="M1235 1578 c-11 -18 -21 -42 -22 -53 -3 -20 -53 -68 -61 -60 -3 2 5
27 17 55 12 28 20 57 18 63 -2 7 -9 -5 -15 -27 -6 -21 -17 -46 -25 -55 -8 -9
-17 -29 -19 -46 -3 -16 -8 -37 -12 -46 -4 -10 -2 -19 7 -22 10 -4 13 0 10 12
-4 17 24 51 66 81 12 8 24 26 26 39 2 12 13 38 24 57 11 19 17 34 13 34 -4 0
-16 -15 -27 -32z"/>
<path d="M1449 1593 c-13 -16 -12 -17 4 -4 9 7 17 15 17 17 0 8 -8 3 -21 -13z"/>
<path d="M1901 1590 c0 -8 6 -26 15 -40 l15 -25 -7 25 c-3 14 -10 32 -15 40
-7 13 -8 13 -8 0z"/>
<path d="M1019 1573 c-13 -17 -13 -17 6 -3 11 8 22 16 24 17 2 2 0 3 -6 3 -6
0 -17 -8 -24 -17z"/>
<path d="M1120 1576 c0 -9 -15 -33 -33 -53 -18 -21 -39 -51 -46 -68 l-13 -30
21 19 c12 11 21 29 22 40 0 12 3 15 6 9 2 -7 12 -13 21 -13 16 1 15 1 0 11
-16 9 -15 13 12 41 32 33 36 43 20 53 -5 3 -10 -1 -10 -9z"/>
<path d="M1372 1520 c-27 -25 -27 -26 -3 -26 11 0 17 5 14 10 -3 5 2 15 12 23
11 7 14 13 9 13 -6 0 -20 -9 -32 -20z"/>
<path d="M1660 1536 c0 -3 9 -10 20 -16 11 -6 20 -8 20 -6 0 3 -9 10 -20 16
-11 6 -20 8 -20 6z"/>
<path d="M1865 1521 c-6 -5 -19 -11 -30 -13 -11 -2 -18 -7 -17 -12 2 -5 -2
-12 -8 -16 -15 -9 8 -56 41 -84 17 -15 23 -15 30 -5 12 19 11 47 -2 51 -7 2
-7 12 0 31 6 16 7 27 1 27 -5 0 -7 7 -4 15 7 17 2 19 -11 6z m1 -70 c-1 -33
-3 -37 -18 -28 -18 12 -30 45 -22 59 3 4 13 8 23 8 13 0 17 -8 17 -39z"/>
<path d="M932 1513 c-21 -8 -44 -63 -38 -89 4 -13 15 -28 26 -34 25 -13 63 12
93 62 17 28 17 32 3 40 -9 5 -15 12 -12 16 5 8 -53 12 -72 5z m36 -31 c2 -7
-3 -12 -12 -12 -9 0 -17 -4 -17 -10 -1 -5 -2 -16 -3 -22 -1 -7 2 -19 7 -25 6
-8 6 -13 0 -13 -17 0 -33 24 -33 52 0 38 47 63 58 30z m36 -13 c-3 -5 -10 -7
-15 -3 -5 3 -7 10 -3 15 3 5 10 7 15 3 5 -3 7 -10 3 -15z"/>
<path d="M1936 1505 c3 -11 12 -63 19 -115 8 -52 25 -133 40 -180 29 -95 54
-177 60 -200 2 -8 9 -28 14 -45 6 -16 17 -57 25 -90 8 -33 15 -51 15 -40 1 29
-15 97 -50 210 -70 228 -79 263 -84 329 -3 37 -14 87 -25 110 -11 22 -17 32
-14 21z"/>
<path d="M809 1488 c-25 -22 -63 -68 -55 -68 3 0 22 16 41 35 21 21 41 32 50
29 19 -8 19 -40 0 -48 -23 -8 -21 -116 1 -116 13 0 14 3 5 14 -15 18 -11 84 6
98 16 13 17 40 1 56 -15 15 -30 15 -49 0z"/>
<path d="M1732 1484 c10 -10 20 -15 24 -12 3 4 -5 12 -18 18 -22 12 -22 12 -6
-6z"/>
<path d="M1301 1424 c-26 -22 -32 -23 -37 -10 -3 9 -12 16 -18 16 -17 0 -58
-45 -49 -54 4 -4 6 -22 5 -41 -4 -35 15 -56 29 -34 12 20 11 29 -3 27 -16 -4
-20 52 -6 70 23 28 57 1 36 -29 -8 -11 -9 -11 -4 3 3 12 1 15 -10 11 -21 -8
-17 -18 17 -47 25 -21 41 -26 86 -26 49 0 59 4 89 34 19 19 34 38 34 43 0 14
-93 63 -118 63 -11 0 -34 -12 -51 -26z m85 -9 c9 -8 12 -15 8 -15 -3 0 -1 -7
6 -15 8 -9 8 -15 2 -15 -6 0 -14 9 -17 20 -7 23 -14 24 -37 6 -24 -18 -22 -42
4 -60 22 -16 22 -16 -14 -16 -63 0 -75 48 -21 90 31 24 49 25 69 5z m39 -15
c3 -5 1 -10 -4 -10 -6 0 -11 5 -11 10 0 6 2 10 4 10 3 0 8 -4 11 -10z m-35
-54 c-8 -8 -13 -7 -20 4 -12 20 -1 33 16 19 11 -9 12 -15 4 -23z m60 31 c0 -2
-10 -12 -22 -23 l-23 -19 19 23 c18 21 26 27 26 19z"/>
<path d="M740 1388 c-12 -22 -12 -22 6 -6 10 10 15 20 12 24 -4 3 -12 -5 -18
-18z"/>
<path d="M1794 1363 c13 -27 27 -72 30 -102 3 -30 11 -58 17 -62 36 -22 -42
-239 -136 -379 -20 -29 -38 -57 -42 -63 -6 -9 25 5 65 31 15 10 20 18 13 25
-9 9 -4 36 8 47 4 3 30 55 59 116 53 114 76 214 53 229 -6 3 -8 11 -5 17 4 6
2 8 -3 5 -7 -4 -13 15 -18 51 -4 36 -16 71 -32 95 -35 51 -39 47 -9 -10z"/>
<path d="M1527 1368 c-13 -13 -27 -33 -31 -46 -9 -27 -104 -74 -153 -75 -18 0
-33 -4 -33 -9 0 -17 53 -7 115 22 48 23 72 41 92 72 l28 41 109 -6 c60 -4 106
-4 102 0 -3 3 -21 7 -39 8 -17 1 -62 5 -99 9 -60 6 -68 5 -91 -16z"/>
<path d="M1160 1299 c0 -11 4 -18 10 -14 5 3 7 12 3 20 -7 21 -13 19 -13 -6z"/>
<path d="M855 1300 c-3 -5 -1 -10 4 -10 6 0 11 5 11 10 0 6 -2 10 -4 10 -3 0
-8 -4 -11 -10z"/>
<path d="M840 1262 c-19 -16 -29 -39 -42 -104 -16 -80 -16 -84 3 -116 10 -18
19 -42 19 -53 0 -21 112 -132 120 -119 3 5 18 10 33 12 16 3 32 10 37 17 6 11
15 11 40 2 40 -13 40 -13 40 -2 0 14 -71 21 -94 9 -42 -24 -61 -19 -108 24
-54 52 -68 81 -35 73 12 -3 58 -12 102 -21 44 -9 87 -20 97 -25 23 -13 135
-11 160 2 29 16 40 -2 17 -30 -21 -25 -69 -32 -92 -12 -7 5 -39 12 -72 15 -51
4 -55 4 -25 -5 19 -5 46 -10 60 -11 13 0 29 -6 35 -13 16 -20 70 -26 91 -10
11 8 15 15 10 15 -5 0 -2 8 6 18 46 54 15 74 -75 48 -73 -21 -88 -20 -130 8
-19 13 -38 22 -40 19 -3 -2 -29 3 -58 11 -29 9 -67 16 -85 16 -30 0 -34 4 -39
33 -4 19 -5 47 -3 63 l3 29 18 -32 c10 -20 23 -30 31 -27 11 4 8 12 -11 32
-19 21 -23 34 -20 65 5 42 4 40 35 56 18 10 34 9 77 -4 65 -18 74 -30 47 -58
-35 -37 -52 -78 -41 -98 7 -14 6 -17 -3 -14 -25 8 -88 15 -88 9 0 -3 7 -12 15
-20 13 -14 15 -14 15 -1 0 19 31 12 59 -14 27 -25 34 -24 29 6 -4 21 -3 23 9
14 11 -10 12 -8 7 5 -5 12 -2 15 11 10 15 -6 16 -4 6 14 -9 17 -8 22 7 26 12
4 18 18 19 54 3 47 1 49 -37 71 -58 33 -129 38 -160 13z m180 -92 c-6 -11 -8
-26 -4 -32 4 -7 3 -8 -4 -4 -8 4 -16 -3 -22 -18 -10 -28 -24 -33 -36 -14 -5 7
-3 8 6 3 8 -5 11 -3 8 6 -3 8 8 29 25 47 36 37 42 40 27 12z"/>
<path d="M1850 1265 c0 -8 4 -15 10 -15 5 0 7 7 4 15 -4 8 -8 15 -10 15 -2 0
-4 -7 -4 -15z"/>
<path d="M1241 1250 c-2 -30 12 -39 38 -26 14 8 19 16 13 20 -6 3 -13 2 -17
-4 -10 -15 -23 -12 -28 8 -3 12 -5 13 -6 2z"/>
<path d="M731 1189 c-13 -38 -13 -39 -3 -39 5 0 9 6 9 13 0 6 3 22 7 35 11 34
-1 26 -13 -9z"/>
<path d="M1892 1160 c0 -14 2 -19 5 -12 2 6 2 18 0 25 -3 6 -5 1 -5 -13z"/>
<path d="M670 1140 c-8 -5 -10 -10 -5 -10 6 0 17 5 25 10 8 5 11 10 5 10 -5 0
-17 -5 -25 -10z"/>
<path d="M696 1119 c-31 -17 -40 -18 -47 -8 -6 11 -11 11 -20 2 -21 -21 19
-28 57 -9 40 18 48 20 39 7 -3 -5 -2 -12 3 -15 4 -2 8 6 8 20 0 13 0 24 0 24
-1 -1 -18 -10 -40 -21z"/>
<path d="M1208 1124 c-10 -9 3 -34 17 -34 7 0 12 8 11 17 -3 18 -18 27 -28 17z"/>
<path d="M1278 1123 c12 -2 30 -2 40 0 9 3 -1 5 -23 4 -22 0 -30 -2 -17 -4z"/>
<path d="M1060 1110 c0 -5 5 -10 10 -10 6 0 10 5 10 10 0 6 -4 10 -10 10 -5 0
-10 -4 -10 -10z"/>
<path d="M1340 1116 c0 -2 11 -6 25 -8 13 -3 22 -1 19 3 -5 9 -44 13 -44 5z"/>
<path d="M1976 1095 c-3 -9 -6 -22 -5 -28 0 -7 5 -1 10 12 5 13 8 26 5 28 -2
2 -6 -3 -10 -12z"/>
<path d="M592 1080 c-11 -18 -10 -19 13 -8 13 6 22 15 19 19 -8 14 -18 11 -32
-11z"/>
<path d="M1168 1083 c-31 -16 -60 -57 -33 -47 8 4 15 12 15 20 0 8 6 14 14 14
7 0 19 7 26 15 15 18 14 17 -22 -2z"/>
<path d="M734 1068 l-19 -23 23 19 c21 18 27 26 19 26 -2 0 -12 -10 -23 -22z"/>
<path d="M633 1073 c-7 -3 -13 -11 -13 -19 0 -8 -5 -14 -11 -14 -5 0 -7 6 -3
13 4 6 3 8 -1 4 -5 -4 -10 -14 -11 -23 -2 -14 0 -13 22 1 23 15 24 15 24 -10
0 -44 21 -118 46 -167 23 -43 24 -51 13 -90 -7 -24 -14 -63 -15 -88 -8 -108
-15 -158 -30 -203 -9 -27 -14 -51 -11 -54 10 -10 37 69 43 126 3 31 10 73 16
94 8 28 8 41 0 49 -8 8 -8 17 0 32 27 50 28 89 3 142 -27 57 -44 123 -45 171
0 34 -7 43 -27 36z"/>
<path d="M1075 1070 c-3 -5 -1 -10 4 -10 6 0 11 5 11 10 0 6 -2 10 -4 10 -3 0
-8 -4 -11 -10z"/>
<path d="M1217 1066 c-4 -9 -2 -16 3 -16 6 0 10 -6 10 -14 0 -17 16 -30 23
-19 2 5 -4 21 -13 36 -14 22 -19 25 -23 13z"/>
<path d="M1881 1064 c0 -11 3 -14 6 -6 3 7 2 16 -1 19 -3 4 -6 -2 -5 -13z"/>
<path d="M1010 1060 c0 -5 5 -10 11 -10 5 0 7 5 4 10 -3 6 -8 10 -11 10 -2 0
-4 -4 -4 -10z"/>
<path d="M1045 1060 c3 -5 8 -10 11 -10 2 0 4 5 4 10 0 6 -5 10 -11 10 -5 0
-7 -4 -4 -10z"/>
<path d="M1968 1027 c-3 -19 -2 -25 4 -19 6 6 8 18 6 28 -3 14 -5 12 -10 -9z"/>
<path d="M719 1023 c-13 -16 -12 -17 4 -4 9 7 17 15 17 17 0 8 -8 3 -21 -13z"/>
<path d="M751 999 c-13 -22 -21 -42 -19 -45 3 -2 15 14 27 37 13 22 21 42 19
45 -3 2 -15 -14 -27 -37z"/>
<path d="M990 1024 c0 -8 5 -12 10 -9 6 3 10 10 10 16 0 5 -4 9 -10 9 -5 0
-10 -7 -10 -16z"/>
<path d="M1096 1005 c4 -8 10 -15 15 -15 5 0 9 7 9 15 0 8 -7 15 -15 15 -9 0
-12 -6 -9 -15z"/>
<path d="M1550 1000 c-9 -6 -10 -10 -3 -10 6 0 15 5 18 10 8 12 4 12 -15 0z"/>
<path d="M1993 925 c0 -27 2 -38 4 -22 2 15 2 37 0 50 -2 12 -4 0 -4 -28z"/>
<path d="M1586 927 c3 -10 9 -15 12 -12 3 3 0 11 -7 18 -10 9 -11 8 -5 -6z"/>
<path d="M1826 923 c-6 -14 -5 -15 5 -6 7 7 10 15 7 18 -3 3 -9 -2 -12 -12z"/>
<path d="M944 915 c-10 -8 -14 -15 -8 -15 6 0 17 7 24 15 16 19 9 19 -16 0z"/>
<path d="M1870 915 c-7 -9 -11 -17 -9 -20 3 -2 10 5 17 15 14 24 10 26 -8 5z"/>
<path d="M1930 884 c-13 -20 -51 -56 -84 -82 -34 -25 -63 -47 -65 -48 -8 -6
-9 -54 -1 -54 4 0 13 7 20 16 8 8 9 14 4 13 -37 -7 -5 29 66 75 34 22 98 102
89 111 -3 2 -15 -12 -29 -31z"/>
<path d="M826 885 c-9 -26 -7 -32 5 -12 6 10 9 21 6 23 -2 3 -7 -2 -11 -11z"/>
<path d="M881 856 c12 -20 23 -36 25 -36 7 0 -25 58 -36 65 -5 3 -1 -10 11
-29z"/>
<path d="M1082 864 c-11 -8 -21 -8 -32 -2 -10 6 -27 6 -50 0 l-35 -11 44 2
c30 1 47 -4 55 -15 6 -9 17 -25 24 -35 7 -10 6 -4 -3 14 l-15 31 43 15 c35 13
37 15 13 14 -15 -1 -36 -7 -44 -13z"/>
<path d="M2035 829 c-4 -6 -5 -12 -2 -15 2 -3 7 2 10 11 7 17 1 20 -8 4z"/>
<path d="M1388 823 c7 -3 16 -2 19 1 4 3 -2 6 -13 5 -11 0 -14 -3 -6 -6z"/>
<path d="M1450 826 c0 -2 7 -7 16 -10 8 -3 12 -2 9 4 -6 10 -25 14 -25 6z"/>
<path d="M1915 812 c-6 -4 -12 -17 -12 -29 -1 -12 -20 -47 -42 -77 -43 -58
-72 -84 -52 -48 18 34 12 39 -7 7 -11 -16 -26 -36 -35 -44 -29 -23 -18 -33 12
-12 33 24 45 27 35 9 -4 -8 -3 -10 2 -5 5 5 9 12 9 15 0 4 20 34 45 67 25 33
44 63 42 67 -1 4 3 19 8 33 10 27 10 28 -5 17z"/>
<path d="M928 793 c7 -3 16 -2 19 1 4 3 -2 6 -13 5 -11 0 -14 -3 -6 -6z"/>
<path d="M750 783 c0 -15 38 -103 45 -103 2 0 4 10 2 21 -4 35 19 33 60 -6 36
-35 29 -39 -11 -6 -18 15 -18 15 -7 -6 6 -13 15 -23 19 -23 4 0 31 -18 60 -40
29 -21 70 -42 90 -46 20 -4 44 -12 52 -18 13 -10 13 -9 1 7 -7 9 -24 17 -37
17 -12 0 -26 5 -30 12 -4 7 -3 8 5 4 7 -4 51 -7 99 -6 48 0 95 1 105 1 9 0 15
4 12 10 -4 5 6 9 22 10 51 1 103 8 116 16 6 4 17 8 22 8 18 1 85 29 85 36 0 4
7 9 15 13 35 13 11 -15 -46 -54 -57 -39 -95 -58 -130 -65 -47 -10 -86 -35
-104 -68 -11 -21 -23 -37 -27 -37 -5 0 -8 -4 -8 -9 0 -5 9 -7 21 -4 12 3 18
11 15 19 -3 7 4 20 16 28 11 8 17 19 14 25 -4 6 5 13 21 17 64 14 112 34 176
73 78 48 171 118 143 107 -19 -7 -19 -6 -1 14 10 11 16 20 13 20 -3 0 -43 -20
-89 -44 -98 -51 -154 -68 -301 -91 -89 -14 -117 -15 -165 -5 -82 17 -133 39
-127 55 3 7 -15 29 -41 50 -44 37 -46 37 -60 19 -9 -12 -13 -13 -10 -4 2 8 -4
26 -15 40 -11 14 -20 20 -20 13z"/>
<path d="M1545 780 c-3 -6 1 -7 9 -4 18 7 21 14 7 14 -6 0 -13 -4 -16 -10z"/>
<path d="M1727 766 c-27 -25 -37 -43 -17 -31 13 8 13 -11 0 -36 -9 -16 -7 -19
11 -16 34 3 33 -17 -6 -63 -19 -23 -35 -44 -35 -46 0 -15 53 25 65 49 19 38
19 61 0 77 -17 14 -13 59 7 71 7 4 10 10 7 14 -3 3 -18 -6 -32 -19z"/>
<path d="M1986 771 c-16 -9 -32 -23 -34 -30 -3 -8 12 -2 32 14 50 38 51 45 2
16z"/>
<path d="M970 774 c0 -6 9 -19 20 -29 18 -16 24 -17 60 -5 22 7 46 20 53 29
10 14 10 14 -3 5 -8 -6 -33 -17 -54 -24 -37 -12 -40 -11 -57 11 -10 13 -19 19
-19 13z"/>
<path d="M1161 765 c0 -5 8 -26 19 -45 11 -19 19 -30 19 -25 0 6 -8 26 -19 45
-11 19 -19 31 -19 25z"/>
<path d="M2080 712 c0 -19 5 -29 15 -29 8 0 15 4 15 9 0 4 -4 8 -10 8 -5 0 -7
6 -4 14 3 8 1 17 -5 21 -7 4 -11 -5 -11 -23z"/>
<path d="M1827 723 c-4 -3 -7 -11 -7 -17 0 -6 5 -5 12 2 6 6 9 14 7 17 -3 3
-9 2 -12 -2z"/>
<path d="M1978 704 c-16 -8 -28 -18 -28 -23 0 -5 -17 -11 -38 -14 -21 -4 -46
-13 -57 -21 -17 -13 -13 -13 30 0 53 16 57 18 99 48 22 16 31 17 54 7 25 -11
26 -10 8 4 -24 18 -33 18 -68 -1z"/>
<path d="M2060 662 c0 -10 -3 -21 -6 -25 -7 -7 -15 -74 -15 -124 0 -38 -49
-105 -133 -182 -64 -58 -111 -111 -98 -111 6 0 14 5 17 10 3 5 20 10 37 10 26
0 29 2 18 15 -10 13 -7 20 18 43 17 15 45 44 62 66 16 21 30 35 30 30 0 -5 14
11 30 36 16 25 30 54 30 66 0 11 3 24 7 28 4 4 6 24 5 44 -2 20 2 52 7 69 6
20 6 35 0 38 -5 4 -9 -2 -9 -13z"/>
<path d="M800 662 c0 -10 43 -52 53 -52 4 0 -2 9 -13 20 -11 11 -20 25 -20 30
0 6 -4 10 -10 10 -5 0 -10 -4 -10 -8z"/>
<path d="M897 587 c18 -13 41 -34 52 -48 19 -22 30 -17 13 6 -13 19 -73 65
-85 65 -6 0 3 -10 20 -23z"/>
<path d="M1599 595 c42 -19 50 -19 25 0 -10 8 -28 14 -39 14 -14 0 -10 -4 14
-14z"/>
<path d="M1061 537 c2 -2 11 -8 20 -15 12 -9 16 -9 16 1 0 7 -9 14 -20 14 -11
1 -18 1 -16 0z"/>
<path d="M1950 510 c0 -5 5 -10 10 -10 6 0 10 5 10 10 0 6 -4 10 -10 10 -5 0
-10 -4 -10 -10z"/>
<path d="M975 500 c3 -5 2 -10 -4 -10 -5 0 -8 -14 -5 -32 2 -18 6 -42 7 -53 1
-11 6 -26 11 -33 9 -14 -6 -53 -33 -84 -16 -21 -2 -24 21 -6 24 20 28 56 17
133 -8 51 -8 70 0 73 13 4 5 22 -10 22 -6 0 -7 -4 -4 -10z"/>
<path d="M1001 477 c2 -1 13 -9 24 -17 19 -14 19 -14 6 3 -7 9 -18 17 -24 17
-6 0 -8 -1 -6 -3z"/>
<path d="M1955 470 c-3 -5 -1 -10 4 -10 6 0 11 5 11 10 0 6 -2 10 -4 10 -3 0
-8 -4 -11 -10z"/>
<path d="M1135 421 c-3 -12 -12 -21 -20 -21 -7 0 -20 -6 -27 -13 -15 -15 -49
-31 -61 -29 -4 1 -6 -1 -6 -5 1 -5 0 -11 -1 -15 -1 -5 -3 -11 -4 -15 -1 -5 -7
-18 -14 -30 -7 -13 -9 -23 -4 -23 4 0 18 21 30 46 18 36 27 45 42 41 13 -3 21
1 25 14 3 10 12 16 19 13 13 -5 44 42 34 52 -4 3 -9 -4 -13 -15z"/>
<path d="M1620 400 c-9 -6 -10 -10 -3 -10 6 0 15 5 18 10 8 12 4 12 -15 0z"/>
<path d="M1359 293 c-13 -17 -13 -17 6 -3 11 8 22 16 24 17 2 2 0 3 -6 3 -6 0
-17 -8 -24 -17z"/>
<path d="M890 262 c0 -4 9 -8 20 -9 11 -1 18 2 15 8 -7 11 -35 12 -35 1z"/>
<path d="M990 256 c0 -2 7 -9 15 -16 9 -7 15 -8 15 -2 0 5 -7 12 -15 16 -8 3
-15 4 -15 2z"/>
<path d="M1275 214 c-9 -15 -12 -23 -6 -20 11 7 35 46 28 46 -3 0 -12 -12 -22
-26z"/>
<path d="M1030 219 c0 -5 9 -9 20 -9 11 0 20 2 20 4 0 2 -9 6 -20 9 -11 3 -20
1 -20 -4z"/>
<path d="M1080 220 c0 -6 7 -10 15 -10 8 0 15 2 15 4 0 2 -7 6 -15 10 -8 3
-15 1 -15 -4z"/>
<path d="M1127 203 c5 -12 3 -14 -8 -8 -8 4 -11 4 -6 0 4 -5 0 -17 -10 -27
-15 -17 -15 -18 0 -18 10 0 17 7 17 15 0 7 7 18 16 23 9 5 14 14 10 21 -11 17
-26 13 -19 -6z"/>
<path d="M1170 180 c0 -5 5 -10 11 -10 5 0 7 5 4 10 -3 6 -8 10 -11 10 -2 0
-4 -4 -4 -10z"/>
<path d="M1583 155 c-18 -8 -33 -16 -33 -19 0 -3 15 1 33 8 17 7 39 16 47 19
13 5 13 5 0 6 -8 0 -30 -6 -47 -14z"/>
</g>
</svg>
